<mxfile host="app.diagrams.net" modified="2024-06-13T07:42:35.519Z" agent="Mozilla/5.0 (Windows NT 10.0; Win64; x64) AppleWebKit/537.36 (KHTML, like Gecko) Chrome/125.0.0.0 Safari/537.36" etag="Bnz8HrE8J7d71L6gDPbp" version="24.5.4" type="github">
  <diagram id="C5RBs43oDa-KdzZeNtuy" name="Page-1">
    <mxGraphModel dx="1674" dy="780" grid="1" gridSize="10" guides="1" tooltips="1" connect="1" arrows="1" fold="1" page="1" pageScale="1" pageWidth="827" pageHeight="1169" math="0" shadow="0">
      <root>
        <mxCell id="WIyWlLk6GJQsqaUBKTNV-0" />
        <mxCell id="WIyWlLk6GJQsqaUBKTNV-1" parent="WIyWlLk6GJQsqaUBKTNV-0" />
        <mxCell id="E-QepIE0ANGa5jjJBdtW-18" style="edgeStyle=orthogonalEdgeStyle;rounded=0;orthogonalLoop=1;jettySize=auto;html=1;exitX=1;exitY=0.5;exitDx=0;exitDy=0;entryX=0.5;entryY=0;entryDx=0;entryDy=0;" edge="1" parent="WIyWlLk6GJQsqaUBKTNV-1" source="WIyWlLk6GJQsqaUBKTNV-6" target="WIyWlLk6GJQsqaUBKTNV-7">
          <mxGeometry relative="1" as="geometry" />
        </mxCell>
        <mxCell id="WIyWlLk6GJQsqaUBKTNV-6" value="HALL_TWOTOUCH&lt;div&gt;투터치 기능이 있는가?&lt;/div&gt;" style="rhombus;whiteSpace=wrap;html=1;shadow=0;fontFamily=Helvetica;fontSize=12;align=center;strokeWidth=1;spacing=6;spacingTop=-4;" parent="WIyWlLk6GJQsqaUBKTNV-1" vertex="1">
          <mxGeometry x="30" y="90" width="170" height="80" as="geometry" />
        </mxCell>
        <mxCell id="E-QepIE0ANGa5jjJBdtW-20" style="edgeStyle=orthogonalEdgeStyle;rounded=0;orthogonalLoop=1;jettySize=auto;html=1;exitX=0.5;exitY=1;exitDx=0;exitDy=0;entryX=0.5;entryY=0;entryDx=0;entryDy=0;" edge="1" parent="WIyWlLk6GJQsqaUBKTNV-1" source="WIyWlLk6GJQsqaUBKTNV-7" target="E-QepIE0ANGa5jjJBdtW-16">
          <mxGeometry relative="1" as="geometry" />
        </mxCell>
        <mxCell id="WIyWlLk6GJQsqaUBKTNV-7" value="FIRST_HALL_UP&lt;div&gt;FIRST_HALL_DN&lt;/div&gt;&lt;div&gt;투터치 고려해서&amp;nbsp;&lt;/div&gt;&lt;div&gt;새로들어온 콜 있는지 계산&lt;/div&gt;" style="shape=process;whiteSpace=wrap;html=1;fontSize=12;glass=0;strokeWidth=1;shadow=0;" parent="WIyWlLk6GJQsqaUBKTNV-1" vertex="1">
          <mxGeometry x="230" y="220" width="180" height="60" as="geometry" />
        </mxCell>
        <mxCell id="E-QepIE0ANGa5jjJBdtW-3" value="START" style="rounded=1;whiteSpace=wrap;html=1;" vertex="1" parent="WIyWlLk6GJQsqaUBKTNV-1">
          <mxGeometry x="62.5" y="10" width="105" height="40" as="geometry" />
        </mxCell>
        <mxCell id="E-QepIE0ANGa5jjJBdtW-4" value="" style="endArrow=classic;html=1;rounded=0;exitX=0.5;exitY=1;exitDx=0;exitDy=0;entryX=0.5;entryY=0;entryDx=0;entryDy=0;" edge="1" parent="WIyWlLk6GJQsqaUBKTNV-1" source="E-QepIE0ANGa5jjJBdtW-3" target="WIyWlLk6GJQsqaUBKTNV-6">
          <mxGeometry width="50" height="50" relative="1" as="geometry">
            <mxPoint x="390" y="430" as="sourcePoint" />
            <mxPoint x="440" y="380" as="targetPoint" />
          </mxGeometry>
        </mxCell>
        <mxCell id="E-QepIE0ANGa5jjJBdtW-7" value="" style="endArrow=classic;html=1;rounded=0;exitX=0.5;exitY=1;exitDx=0;exitDy=0;" edge="1" parent="WIyWlLk6GJQsqaUBKTNV-1" source="WIyWlLk6GJQsqaUBKTNV-6">
          <mxGeometry width="50" height="50" relative="1" as="geometry">
            <mxPoint x="200" y="130" as="sourcePoint" />
            <mxPoint x="115" y="220" as="targetPoint" />
          </mxGeometry>
        </mxCell>
        <mxCell id="E-QepIE0ANGa5jjJBdtW-19" style="edgeStyle=orthogonalEdgeStyle;rounded=0;orthogonalLoop=1;jettySize=auto;html=1;exitX=0.5;exitY=1;exitDx=0;exitDy=0;" edge="1" parent="WIyWlLk6GJQsqaUBKTNV-1" source="E-QepIE0ANGa5jjJBdtW-9" target="E-QepIE0ANGa5jjJBdtW-16">
          <mxGeometry relative="1" as="geometry" />
        </mxCell>
        <mxCell id="E-QepIE0ANGa5jjJBdtW-9" value="FIRST_HALL_UP&lt;div&gt;FIRST_HALL_DN&lt;/div&gt;&lt;div&gt;새로들어온 콜 있는지 계산&lt;/div&gt;" style="shape=process;whiteSpace=wrap;html=1;fontSize=12;glass=0;strokeWidth=1;shadow=0;" vertex="1" parent="WIyWlLk6GJQsqaUBKTNV-1">
          <mxGeometry x="25" y="220" width="180" height="60" as="geometry" />
        </mxCell>
        <mxCell id="E-QepIE0ANGa5jjJBdtW-12" value="Yes&lt;span style=&quot;color: rgba(0, 0, 0, 0); font-family: monospace; font-size: 0px; text-align: start; text-wrap: nowrap;&quot;&gt;%3CmxGraphModel%3E%3Croot%3E%3CmxCell%20id%3D%220%22%2F%3E%3CmxCell%20id%3D%221%22%20parent%3D%220%22%2F%3E%3CmxCell%20id%3D%222%22%20value%3D%22FIRST_HALL_UP%26lt%3Bdiv%26gt%3BFIRST_HALL_DN%26lt%3B%2Fdiv%26gt%3B%26lt%3Bdiv%26gt%3B%ED%88%AC%ED%84%B0%EC%B9%98%20%EA%B3%A0%EB%A0%A4%ED%95%B4%EC%84%9C%26amp%3Bnbsp%3B%26lt%3B%2Fdiv%26gt%3B%26lt%3Bdiv%26gt%3B%EC%83%88%EB%A1%9C%EB%93%A4%EC%96%B4%EC%98%A8%20%EC%BD%9C%20%EC%9E%88%EB%8A%94%EC%A7%80%20%EA%B3%84%EC%82%B0%26lt%3B%2Fdiv%26gt%3B%22%20style%3D%22rounded%3D1%3BwhiteSpace%3Dwrap%3Bhtml%3D1%3BfontSize%3D12%3Bglass%3D0%3BstrokeWidth%3D1%3Bshadow%3D0%3B%22%20vertex%3D%221%22%20parent%3D%221%22%3E%3CmxGeometry%20x%3D%22260%22%20y%3D%2290%22%20width%3D%22150%22%20height%3D%2260%22%20as%3D%22geometry%22%2F%3E%3C%2FmxCell%3E%3C%2Froot%3E%3C%2FmxGraphModel%3E&lt;/span&gt;" style="text;html=1;align=center;verticalAlign=middle;whiteSpace=wrap;rounded=0;" vertex="1" parent="WIyWlLk6GJQsqaUBKTNV-1">
          <mxGeometry x="190" y="100" width="60" height="30" as="geometry" />
        </mxCell>
        <mxCell id="E-QepIE0ANGa5jjJBdtW-13" value="&lt;div style=&quot;text-align: center;&quot;&gt;&lt;span style=&quot;text-align: start; background-color: initial;&quot;&gt;No&lt;/span&gt;&lt;span style=&quot;color: rgba(0, 0, 0, 0); font-family: monospace; font-size: 0px; text-align: start; text-wrap: nowrap; background-color: initial;&quot;&gt;%3CmxGraphModel%3E%3Croot%3E%3CmxCell%20id%3D%220%22%2F%3E%3CmxCell%20id%3D%221%22%20parent%3D%220%22%2F%3E%3CmxCell%20id%3D%222%22%20value%3D%22FIRST_HALL_UP%26lt%3Bdiv%26gt%3BFIRST_HALL_DN%26lt%3B%2Fdiv%26gt%3B%26lt%3Bdiv%26gt%3B%ED%88%AC%ED%84%B0%EC%B9%98%20%EA%B3%A0%EB%A0%A4%ED%95%B4%EC%84%9C%26amp%3Bnbsp%3B%26lt%3B%2Fdiv%26gt%3B%26lt%3Bdiv%26gt%3B%EC%83%88%EB%A1%9C%EB%93%A4%EC%96%B4%EC%98%A8%20%EC%BD%9C%20%EC%9E%88%EB%8A%94%EC%A7%80%20%EA%B3%84%EC%82%B0%26lt%3B%2Fdiv%26gt%3B%22%20style%3D%22rounded%3D1%3BwhiteSpace%3Dwrap%3Bhtml%3D1%3BfontSize%3D12%3Bglass%3D0%3BstrokeWidth%3D1%3Bshadow%3D0%3B%22%20vertex%3D%221%22%20parent%3D%221%22%3E%3CmxGeometry%20x%3D%22260%22%20y%3D%2290%22%20width%3D%22150%22%20height%3D%2260%22%20as%3D%22geometry%22%2F%3E%3C%2FmxCell%3E%3C%2Froot%3E%3C%2FmxGraphModel%3E&lt;/span&gt;&lt;/div&gt;" style="text;html=1;align=center;verticalAlign=middle;whiteSpace=wrap;rounded=0;" vertex="1" parent="WIyWlLk6GJQsqaUBKTNV-1">
          <mxGeometry x="120" y="170" width="60" height="30" as="geometry" />
        </mxCell>
        <mxCell id="E-QepIE0ANGa5jjJBdtW-44" style="edgeStyle=orthogonalEdgeStyle;rounded=0;orthogonalLoop=1;jettySize=auto;html=1;exitX=0.5;exitY=1;exitDx=0;exitDy=0;entryX=0.5;entryY=0;entryDx=0;entryDy=0;" edge="1" parent="WIyWlLk6GJQsqaUBKTNV-1" source="E-QepIE0ANGa5jjJBdtW-16" target="E-QepIE0ANGa5jjJBdtW-27">
          <mxGeometry relative="1" as="geometry" />
        </mxCell>
        <mxCell id="E-QepIE0ANGa5jjJBdtW-16" value="&lt;div&gt;&lt;br&gt;&lt;/div&gt;" style="shape=process;whiteSpace=wrap;html=1;backgroundOutline=1;size=0.038461538461538464;" vertex="1" parent="WIyWlLk6GJQsqaUBKTNV-1">
          <mxGeometry x="57.5" y="340" width="325" height="200" as="geometry" />
        </mxCell>
        <mxCell id="E-QepIE0ANGa5jjJBdtW-22" value="계산된 FIRST_HALL-UP | DN을SELECT_HALL_UP,&amp;nbsp;&lt;span style=&quot;background-color: initial;&quot;&gt;SELECT_HALL_DN&lt;/span&gt;&lt;div&gt;에 각각 누적 저장&lt;/div&gt;" style="shape=process;whiteSpace=wrap;html=1;backgroundOutline=1;size=0.07407407407407407;" vertex="1" parent="WIyWlLk6GJQsqaUBKTNV-1">
          <mxGeometry x="84" y="350" width="270" height="60" as="geometry" />
        </mxCell>
        <mxCell id="E-QepIE0ANGa5jjJBdtW-23" value="도어가 열려있는 호기는 TDOOR += 60" style="shape=process;whiteSpace=wrap;html=1;backgroundOutline=1;size=0.07407407407407407;" vertex="1" parent="WIyWlLk6GJQsqaUBKTNV-1">
          <mxGeometry x="84" y="420" width="270" height="60" as="geometry" />
        </mxCell>
        <mxCell id="E-QepIE0ANGa5jjJBdtW-24" value="최대층이 높은 쪽을 tfl 변수에 저장" style="shape=process;whiteSpace=wrap;html=1;backgroundOutline=1;size=0.07407407407407407;" vertex="1" parent="WIyWlLk6GJQsqaUBKTNV-1">
          <mxGeometry x="84" y="490" width="270" height="40" as="geometry" />
        </mxCell>
        <mxCell id="E-QepIE0ANGa5jjJBdtW-27" value="반복문 for (&lt;span style=&quot;font-weight: 400;&quot;&gt;p=1; p &amp;lt;= tfl; p++)&lt;/span&gt;" style="swimlane;whiteSpace=wrap;html=1;" vertex="1" parent="WIyWlLk6GJQsqaUBKTNV-1">
          <mxGeometry x="57.5" y="620" width="470" height="265" as="geometry" />
        </mxCell>
        <mxCell id="E-QepIE0ANGa5jjJBdtW-36" style="edgeStyle=orthogonalEdgeStyle;rounded=0;orthogonalLoop=1;jettySize=auto;html=1;exitX=1;exitY=0.5;exitDx=0;exitDy=0;entryX=0.5;entryY=0;entryDx=0;entryDy=0;" edge="1" parent="E-QepIE0ANGa5jjJBdtW-27" source="E-QepIE0ANGa5jjJBdtW-28" target="E-QepIE0ANGa5jjJBdtW-30">
          <mxGeometry relative="1" as="geometry" />
        </mxCell>
        <mxCell id="E-QepIE0ANGa5jjJBdtW-37" style="edgeStyle=orthogonalEdgeStyle;rounded=0;orthogonalLoop=1;jettySize=auto;html=1;exitX=0;exitY=0.5;exitDx=0;exitDy=0;entryX=0.5;entryY=0;entryDx=0;entryDy=0;" edge="1" parent="E-QepIE0ANGa5jjJBdtW-27" source="E-QepIE0ANGa5jjJBdtW-28" target="E-QepIE0ANGa5jjJBdtW-29">
          <mxGeometry relative="1" as="geometry" />
        </mxCell>
        <mxCell id="E-QepIE0ANGa5jjJBdtW-28" value="bit = (CPU_INT64U)0x01&amp;lt;&amp;lt;(p-1)" style="rounded=0;whiteSpace=wrap;html=1;" vertex="1" parent="E-QepIE0ANGa5jjJBdtW-27">
          <mxGeometry x="140" y="35" width="190" height="25" as="geometry" />
        </mxCell>
        <mxCell id="E-QepIE0ANGa5jjJBdtW-32" value="" style="edgeStyle=orthogonalEdgeStyle;rounded=0;orthogonalLoop=1;jettySize=auto;html=1;" edge="1" parent="E-QepIE0ANGa5jjJBdtW-27" source="E-QepIE0ANGa5jjJBdtW-29" target="E-QepIE0ANGa5jjJBdtW-31">
          <mxGeometry relative="1" as="geometry" />
        </mxCell>
        <mxCell id="E-QepIE0ANGa5jjJBdtW-29" value="SELECT_HALL_UP &amp;amp; bit" style="rhombus;whiteSpace=wrap;html=1;" vertex="1" parent="E-QepIE0ANGa5jjJBdtW-27">
          <mxGeometry x="22.5" y="80" width="188.75" height="55" as="geometry" />
        </mxCell>
        <mxCell id="E-QepIE0ANGa5jjJBdtW-35" style="edgeStyle=orthogonalEdgeStyle;rounded=0;orthogonalLoop=1;jettySize=auto;html=1;exitX=0.5;exitY=1;exitDx=0;exitDy=0;entryX=0.5;entryY=0;entryDx=0;entryDy=0;" edge="1" parent="E-QepIE0ANGa5jjJBdtW-27" source="E-QepIE0ANGa5jjJBdtW-30" target="E-QepIE0ANGa5jjJBdtW-34">
          <mxGeometry relative="1" as="geometry" />
        </mxCell>
        <mxCell id="E-QepIE0ANGa5jjJBdtW-30" value="SELECT_HALL_DN &amp;amp; bit" style="rhombus;whiteSpace=wrap;html=1;" vertex="1" parent="E-QepIE0ANGa5jjJBdtW-27">
          <mxGeometry x="260" y="80" width="188.75" height="55" as="geometry" />
        </mxCell>
        <mxCell id="E-QepIE0ANGa5jjJBdtW-31" value="NEW_HALL _UP = bit&lt;div&gt;SELECT_HALL_UP &amp;amp;= ~bit&lt;/div&gt;" style="whiteSpace=wrap;html=1;" vertex="1" parent="E-QepIE0ANGa5jjJBdtW-27">
          <mxGeometry x="36.72" y="177.5" width="160.31" height="60" as="geometry" />
        </mxCell>
        <mxCell id="E-QepIE0ANGa5jjJBdtW-34" value="NEW_HALL _DN = bit&lt;div&gt;SELECT_HALL_DN &amp;amp;= ~bit&lt;/div&gt;" style="whiteSpace=wrap;html=1;" vertex="1" parent="E-QepIE0ANGa5jjJBdtW-27">
          <mxGeometry x="274.22" y="177.5" width="160.31" height="60" as="geometry" />
        </mxCell>
        <mxCell id="E-QepIE0ANGa5jjJBdtW-38" value="Yes&lt;span style=&quot;color: rgba(0, 0, 0, 0); font-family: monospace; font-size: 0px; text-align: start; text-wrap: nowrap;&quot;&gt;%3CmxGraphModel%3E%3Croot%3E%3CmxCell%20id%3D%220%22%2F%3E%3CmxCell%20id%3D%221%22%20parent%3D%220%22%2F%3E%3CmxCell%20id%3D%222%22%20value%3D%22FIRST_HALL_UP%26lt%3Bdiv%26gt%3BFIRST_HALL_DN%26lt%3B%2Fdiv%26gt%3B%26lt%3Bdiv%26gt%3B%ED%88%AC%ED%84%B0%EC%B9%98%20%EA%B3%A0%EB%A0%A4%ED%95%B4%EC%84%9C%26amp%3Bnbsp%3B%26lt%3B%2Fdiv%26gt%3B%26lt%3Bdiv%26gt%3B%EC%83%88%EB%A1%9C%EB%93%A4%EC%96%B4%EC%98%A8%20%EC%BD%9C%20%EC%9E%88%EB%8A%94%EC%A7%80%20%EA%B3%84%EC%82%B0%26lt%3B%2Fdiv%26gt%3B%22%20style%3D%22rounded%3D1%3BwhiteSpace%3Dwrap%3Bhtml%3D1%3BfontSize%3D12%3Bglass%3D0%3BstrokeWidth%3D1%3Bshadow%3D0%3B%22%20vertex%3D%221%22%20parent%3D%221%22%3E%3CmxGeometry%20x%3D%22260%22%20y%3D%2290%22%20width%3D%22150%22%20height%3D%2260%22%20as%3D%22geometry%22%2F%3E%3C%2FmxCell%3E%3C%2Froot%3E%3C%2FmxGraphModel%3E&lt;/span&gt;" style="text;html=1;align=center;verticalAlign=middle;whiteSpace=wrap;rounded=0;" vertex="1" parent="E-QepIE0ANGa5jjJBdtW-27">
          <mxGeometry x="110" y="135" width="60" height="30" as="geometry" />
        </mxCell>
        <mxCell id="E-QepIE0ANGa5jjJBdtW-39" value="Yes&lt;span style=&quot;color: rgba(0, 0, 0, 0); font-family: monospace; font-size: 0px; text-align: start; text-wrap: nowrap;&quot;&gt;%3CmxGraphModel%3E%3Croot%3E%3CmxCell%20id%3D%220%22%2F%3E%3CmxCell%20id%3D%221%22%20parent%3D%220%22%2F%3E%3CmxCell%20id%3D%222%22%20value%3D%22FIRST_HALL_UP%26lt%3Bdiv%26gt%3BFIRST_HALL_DN%26lt%3B%2Fdiv%26gt%3B%26lt%3Bdiv%26gt%3B%ED%88%AC%ED%84%B0%EC%B9%98%20%EA%B3%A0%EB%A0%A4%ED%95%B4%EC%84%9C%26amp%3Bnbsp%3B%26lt%3B%2Fdiv%26gt%3B%26lt%3Bdiv%26gt%3B%EC%83%88%EB%A1%9C%EB%93%A4%EC%96%B4%EC%98%A8%20%EC%BD%9C%20%EC%9E%88%EB%8A%94%EC%A7%80%20%EA%B3%84%EC%82%B0%26lt%3B%2Fdiv%26gt%3B%22%20style%3D%22rounded%3D1%3BwhiteSpace%3Dwrap%3Bhtml%3D1%3BfontSize%3D12%3Bglass%3D0%3BstrokeWidth%3D1%3Bshadow%3D0%3B%22%20vertex%3D%221%22%20parent%3D%221%22%3E%3CmxGeometry%20x%3D%22260%22%20y%3D%2290%22%20width%3D%22150%22%20height%3D%2260%22%20as%3D%22geometry%22%2F%3E%3C%2FmxCell%3E%3C%2Froot%3E%3C%2FmxGraphModel%3E&lt;/span&gt;" style="text;html=1;align=center;verticalAlign=middle;whiteSpace=wrap;rounded=0;" vertex="1" parent="E-QepIE0ANGa5jjJBdtW-27">
          <mxGeometry x="347" y="135" width="60" height="30" as="geometry" />
        </mxCell>
        <mxCell id="E-QepIE0ANGa5jjJBdtW-50" value="&lt;div style=&quot;text-align: center;&quot;&gt;&lt;span style=&quot;text-align: start; background-color: initial;&quot;&gt;No&lt;/span&gt;&lt;span style=&quot;color: rgba(0, 0, 0, 0); font-family: monospace; font-size: 0px; text-align: start; text-wrap: nowrap; background-color: initial;&quot;&gt;%3CmxGraphModel%3E%3Croot%3E%3CmxCell%20id%3D%220%22%2F%3E%3CmxCell%20id%3D%221%22%20parent%3D%220%22%2F%3E%3CmxCell%20id%3D%222%22%20value%3D%22FIRST_HALL_UP%26lt%3Bdiv%26gt%3BFIRST_HALL_DN%26lt%3B%2Fdiv%26gt%3B%26lt%3Bdiv%26gt%3B%ED%88%AC%ED%84%B0%EC%B9%98%20%EA%B3%A0%EB%A0%A4%ED%95%B4%EC%84%9C%26amp%3Bnbsp%3B%26lt%3B%2Fdiv%26gt%3B%26lt%3Bdiv%26gt%3B%EC%83%88%EB%A1%9C%EB%93%A4%EC%96%B4%EC%98%A8%20%EC%BD%9C%20%EC%9E%88%EB%8A%94%EC%A7%80%20%EA%B3%84%EC%82%B0%26lt%3B%2Fdiv%26gt%3B%22%20style%3D%22rounded%3D1%3BwhiteSpace%3Dwrap%3Bhtml%3D1%3BfontSize%3D12%3Bglass%3D0%3BstrokeWidth%3D1%3Bshadow%3D0%3B%22%20vertex%3D%221%22%20parent%3D%221%22%3E%3CmxGeometry%20x%3D%22260%22%20y%3D%2290%22%20width%3D%22150%22%20height%3D%2260%22%20as%3D%22geometry%22%2F%3E%3C%2FmxCell%3E%3C%2Froot%3E%3C%2FmxGraphModel%3E&lt;/span&gt;&lt;/div&gt;" style="text;html=1;align=center;verticalAlign=middle;whiteSpace=wrap;rounded=0;" vertex="1" parent="E-QepIE0ANGa5jjJBdtW-27">
          <mxGeometry x="205" y="80" width="60" height="30" as="geometry" />
        </mxCell>
        <mxCell id="E-QepIE0ANGa5jjJBdtW-49" style="edgeStyle=orthogonalEdgeStyle;rounded=0;orthogonalLoop=1;jettySize=auto;html=1;exitX=0.5;exitY=1;exitDx=0;exitDy=0;entryX=0.5;entryY=0;entryDx=0;entryDy=0;" edge="1" parent="WIyWlLk6GJQsqaUBKTNV-1" source="E-QepIE0ANGa5jjJBdtW-45" target="E-QepIE0ANGa5jjJBdtW-48">
          <mxGeometry relative="1" as="geometry" />
        </mxCell>
        <mxCell id="E-QepIE0ANGa5jjJBdtW-45" value="NEW_HALL_UP이 있음?" style="rhombus;whiteSpace=wrap;html=1;" vertex="1" parent="WIyWlLk6GJQsqaUBKTNV-1">
          <mxGeometry x="198.12" y="930" width="188.75" height="55" as="geometry" />
        </mxCell>
        <mxCell id="E-QepIE0ANGa5jjJBdtW-46" style="edgeStyle=orthogonalEdgeStyle;rounded=0;orthogonalLoop=1;jettySize=auto;html=1;exitX=1;exitY=0.5;exitDx=0;exitDy=0;" edge="1" parent="WIyWlLk6GJQsqaUBKTNV-1" source="E-QepIE0ANGa5jjJBdtW-29" target="E-QepIE0ANGa5jjJBdtW-45">
          <mxGeometry relative="1" as="geometry" />
        </mxCell>
        <mxCell id="E-QepIE0ANGa5jjJBdtW-47" style="edgeStyle=orthogonalEdgeStyle;rounded=0;orthogonalLoop=1;jettySize=auto;html=1;exitX=0;exitY=0.5;exitDx=0;exitDy=0;entryX=0.5;entryY=0;entryDx=0;entryDy=0;" edge="1" parent="WIyWlLk6GJQsqaUBKTNV-1" source="E-QepIE0ANGa5jjJBdtW-30" target="E-QepIE0ANGa5jjJBdtW-45">
          <mxGeometry relative="1" as="geometry" />
        </mxCell>
        <mxCell id="E-QepIE0ANGa5jjJBdtW-48" value="NEW_HALL_DN이 있음?" style="rhombus;whiteSpace=wrap;html=1;" vertex="1" parent="WIyWlLk6GJQsqaUBKTNV-1">
          <mxGeometry x="198.12" y="1020" width="188.75" height="55" as="geometry" />
        </mxCell>
        <mxCell id="E-QepIE0ANGa5jjJBdtW-51" value="&lt;div style=&quot;text-align: center;&quot;&gt;&lt;span style=&quot;text-align: start; background-color: initial;&quot;&gt;No&lt;/span&gt;&lt;span style=&quot;color: rgba(0, 0, 0, 0); font-family: monospace; font-size: 0px; text-align: start; text-wrap: nowrap; background-color: initial;&quot;&gt;%3CmxGraphModel%3E%3Croot%3E%3CmxCell%20id%3D%220%22%2F%3E%3CmxCell%20id%3D%221%22%20parent%3D%220%22%2F%3E%3CmxCell%20id%3D%222%22%20value%3D%22FIRST_HALL_UP%26lt%3Bdiv%26gt%3BFIRST_HALL_DN%26lt%3B%2Fdiv%26gt%3B%26lt%3Bdiv%26gt%3B%ED%88%AC%ED%84%B0%EC%B9%98%20%EA%B3%A0%EB%A0%A4%ED%95%B4%EC%84%9C%26amp%3Bnbsp%3B%26lt%3B%2Fdiv%26gt%3B%26lt%3Bdiv%26gt%3B%EC%83%88%EB%A1%9C%EB%93%A4%EC%96%B4%EC%98%A8%20%EC%BD%9C%20%EC%9E%88%EB%8A%94%EC%A7%80%20%EA%B3%84%EC%82%B0%26lt%3B%2Fdiv%26gt%3B%22%20style%3D%22rounded%3D1%3BwhiteSpace%3Dwrap%3Bhtml%3D1%3BfontSize%3D12%3Bglass%3D0%3BstrokeWidth%3D1%3Bshadow%3D0%3B%22%20vertex%3D%221%22%20parent%3D%221%22%3E%3CmxGeometry%20x%3D%22260%22%20y%3D%2290%22%20width%3D%22150%22%20height%3D%2260%22%20as%3D%22geometry%22%2F%3E%3C%2FmxCell%3E%3C%2Froot%3E%3C%2FmxGraphModel%3E&lt;/span&gt;&lt;/div&gt;" style="text;html=1;align=center;verticalAlign=middle;whiteSpace=wrap;rounded=0;" vertex="1" parent="WIyWlLk6GJQsqaUBKTNV-1">
          <mxGeometry x="290" y="985" width="60" height="30" as="geometry" />
        </mxCell>
        <mxCell id="E-QepIE0ANGa5jjJBdtW-52" value="Yes&lt;span style=&quot;color: rgba(0, 0, 0, 0); font-family: monospace; font-size: 0px; text-align: start; text-wrap: nowrap;&quot;&gt;%3CmxGraphModel%3E%3Croot%3E%3CmxCell%20id%3D%220%22%2F%3E%3CmxCell%20id%3D%221%22%20parent%3D%220%22%2F%3E%3CmxCell%20id%3D%222%22%20value%3D%22FIRST_HALL_UP%26lt%3Bdiv%26gt%3BFIRST_HALL_DN%26lt%3B%2Fdiv%26gt%3B%26lt%3Bdiv%26gt%3B%ED%88%AC%ED%84%B0%EC%B9%98%20%EA%B3%A0%EB%A0%A4%ED%95%B4%EC%84%9C%26amp%3Bnbsp%3B%26lt%3B%2Fdiv%26gt%3B%26lt%3Bdiv%26gt%3B%EC%83%88%EB%A1%9C%EB%93%A4%EC%96%B4%EC%98%A8%20%EC%BD%9C%20%EC%9E%88%EB%8A%94%EC%A7%80%20%EA%B3%84%EC%82%B0%26lt%3B%2Fdiv%26gt%3B%22%20style%3D%22rounded%3D1%3BwhiteSpace%3Dwrap%3Bhtml%3D1%3BfontSize%3D12%3Bglass%3D0%3BstrokeWidth%3D1%3Bshadow%3D0%3B%22%20vertex%3D%221%22%20parent%3D%221%22%3E%3CmxGeometry%20x%3D%22260%22%20y%3D%2290%22%20width%3D%22150%22%20height%3D%2260%22%20as%3D%22geometry%22%2F%3E%3C%2FmxCell%3E%3C%2Froot%3E%3C%2FmxGraphModel%3E&lt;/span&gt;" style="text;html=1;align=center;verticalAlign=middle;whiteSpace=wrap;rounded=0;" vertex="1" parent="WIyWlLk6GJQsqaUBKTNV-1">
          <mxGeometry x="382.5" y="930" width="60" height="30" as="geometry" />
        </mxCell>
        <mxCell id="E-QepIE0ANGa5jjJBdtW-53" value="newfl = floor_num(NEW_HALL_UP); newflup = floor_num(NEW_HALL_UP)" style="whiteSpace=wrap;html=1;" vertex="1" parent="WIyWlLk6GJQsqaUBKTNV-1">
          <mxGeometry x="446.87" y="927.5" width="210" height="60" as="geometry" />
        </mxCell>
      </root>
    </mxGraphModel>
  </diagram>
</mxfile>
